<?xml version="1.0" standalone="no"?><!DOCTYPE svg PUBLIC "-//W3C//DTD SVG 1.1//EN" "http://www.w3.org/Graphics/SVG/1.1/DTD/svg11.dtd"><svg t="1626614149409" class="icon" viewBox="0 0 1024 1024" version="1.1" xmlns="http://www.w3.org/2000/svg" p-id="3870" xmlns:xlink="http://www.w3.org/1999/xlink" width="128" height="128"><defs><style type="text/css"></style></defs><path d="M899.516848 833.832869C823.943638 708.896392 745.69346 583.959915 671.190629 459.023438c26.555819-57.496505 55.010895-114.993011 81.718163-172.489516 6.05081-13.026688 5.003967-23.810289-3.755534-34.924417-32.248472-40.922015-32.738635-108.316961-30.816866-158.316725 0.603751-15.706727-13.190417-28.193109-28.443819-28.193109-33.971719 0-67.943438 0-101.914134 0-11.695367 0-25.858948 8.060583-27.789926 20.531616-4.354168 28.112268-16.242939 65.082274-45.223994 76.045977-39.649022 14.999622-57.513902-39.133276-59.530838-68.227917-1.085728-15.665795-12.287861-28.349675-28.819372-28.349675-33.186843 0-69.2502 0-96.658434 0-15.547091-1.944282-33.259498 7.268544-34.155914 27.566846-2.316765 52.420907-6.200212 117.352755-33.982976 152.539138-8.888438 11.256368-13.354146 21.751397-7.531534 34.924417 25.88453 58.558697 48.962132 117.116371 74.627674 175.675068-63.048965 109.379153-125.862569 220.288149-186.92018 332.216357-17.783015 32.599466-37.146015 54.087872-19.232017 89.169879 15.214517 29.79663 48.826032 55.373145 79.412654 67.433832 63.10013 24.879644 108.514459 6.431479 150.783145-41.193191 45.848211-51.656497 113.110127 53.265134 164.223249 52.770877 49.906643-0.483001 92.663446-51.982932 138.118708-67.3929 20.11206-6.818289 49.222051 32.456203 63.122643 43.295062 21.053502 16.415878 42.562375 20.891819 68.505233 15.871479 44.088124-8.53028 92.081185-46.031383 114.087385-85.052095C906.040425 854.011444 904.892275 842.720284 899.516848 833.832869zM492.915339 220.263589c61.485353 4.366448 102.744036-43.227524 118.166283-97.857748 16.527418 0 33.054837 0 49.582255 0 0.596588 52.515051 9.015328 107.74698 36.053124 152.209634-23.974018 51.602262-47.948035 103.171778-71.923076 154.782226-80.132038 0-156.451238 0-237.969856 0-8.494465-23.354917-23.414269-48.104601-28.950356-60.627822-14.710027-33.277918-28.960589-66.555835-43.529399-99.833753 28.194132-44.62229 34.597983-94.456279 37.57171-146.529261 15.737426 0 32.95046 0 50.15633 0C412.561243 169.4329 441.09716 216.58378 492.915339 220.263589zM801.107537 878.453113c-46.791699 29.223578-56.494689-4.588505-91.397616-29.020964-58.600653-41.021276-110.363573 2.440585-162.41609 32.868595-9.199523 5.377474-26.28669 19.244296-37.225833 14.362102-16.654308-7.432273-30.840402-21.736047-45.201481-32.781614-28.089755-21.605064-62.60485-36.947494-98.69686-29.702486-31.442106 6.311753-52.27969 23.759123-72.39175 47.393403-35.156708 41.315988-95.134731 6.157233-121.9167-30.42494 70.673619-123.029034 137.37988-244.61623 208.972429-364.444363 42.781362 0 161.990395 0 241.241366 0 5.845125 14.044878 15.71696 27.868721 25.953092 44.791136 63.837934 105.536638 125.495202 211.04667 188.858322 316.580239C827.376831 860.272032 814.568107 870.045629 801.107537 878.453113z" p-id="3871"></path></svg>